<svg id="Layer_1" data-name="Layer 1" xmlns="http://www.w3.org/2000/svg" viewBox="0 0 135.76 240.77"><defs><style>.cls-1{fill:#3a215b;}.cls-2{fill:#6e57a5;}.cls-3{fill:#c2c1c0;}.cls-4{fill:#272827;}</style></defs><title>Enemy5</title><path class="cls-1" d="M341.85,438.09c4.5.49,8.87,1,13.25,1.43,6.17.66,12.31,1.55,18.39,2.79,2.05.42,4.13.67,6.2.95,1.15.17,2.26.39,2.42,1.79s-.92,1.73-1.89,2.16c-10.1,4.46-19.91,9.42-28.26,16.81-1.2,1.06-2.35,2.18-3.51,3.29a2.59,2.59,0,0,0-.28.56A64,64,0,0,1,363,472.64c10.07,4.85,16.93,12.89,22.35,22.37,6.94,12.14,11,25.31,13.62,38.93a191.73,191.73,0,0,1,3.73,42.42,172.37,172.37,0,0,1-6.06,41.69,16.26,16.26,0,0,1-.8,2.25c-.48,1.07-1.18,1.92-2.52,1.78s-1.79-1.24-2-2.36a41.91,41.91,0,0,0-2.26-8.51c-1.48-3.76-2.86-7.57-4.31-11.34-.41-1.06-.91-2.08-1.54-3.51-1.15,2.61-2.11,4.84-3.12,7.06-2.64,5.81-5,11.75-8.62,17.07-.11.15-.19.32-.29.47-2.17,3.34-4.18,3.37-6.66-.23-.24,1.8-.47,3.31-.65,4.84-.85,7.21-1.11,14.48-2.27,21.66q-1,6-2.25,11.95c-.74,3.37-2.91,4.64-5.35,3.34a4.2,4.2,0,0,1-2-2.74c-1.72-5.8-2-11.78-2.08-17.74-.18-9.18-.07-18.37-.08-27.56,0-2.14.5-4.26.25-6.83-1.32,2.85-2.46,5.38-3.66,7.87a52.32,52.32,0,0,1-3.94,7.29c-.8,1.15-1.69,2.22-3.28,1.87s-2.14-1.75-2.33-3.21c-.59-4.63-1.13-9.28-1.71-13.91,0-.34,0-.76-.48-1.11l-1.54,13c-.11.91-.2,1.84-.4,2.73a3,3,0,0,1-2.15,2.53c-1.34.31-2.22-.42-3-1.4a40.36,40.36,0,0,1-3.71-6.56,6.65,6.65,0,0,0-1.42-2c-.27,3.26-.54,6.52-.83,9.78-.65,7.23-.77,14.52-2.26,21.65-.95,4.56-2.23,9-3.36,13.57-.06.24-.19.46-.26.69-.32,1.15-.92,2.1-2.21,2.17s-2.09-.93-2.52-2.07a44,44,0,0,1-1.93-7.67c-2-10.9-3.47-21.86-3.17-33.16-.79.45-.85,1.09-1.13,1.58-1.65,2.91-4,3.06-5.86.25a58.46,58.46,0,0,1-4.15-7c-2.6-5.41-5-10.93-7.49-16.4-.19-.44-.39-.87-.63-1.4a6.78,6.78,0,0,0-1.61,2.92c-1.53,3.94-2.95,7.92-4.5,11.86a46.23,46.23,0,0,0-2.19,8.35c-.21,1.1-.65,2-1.88,2.22a2.28,2.28,0,0,1-2.53-1.71,72,72,0,0,1-2.95-11,160.17,160.17,0,0,1-4-40.33c.53-21.38,3.64-42.37,11.75-62.36A94.7,94.7,0,0,1,288,489.43c7.94-11.85,19-18.76,32.94-21.37,2.36-.44,4.73-.77,7.1-1.11a1.89,1.89,0,0,0,1.29-.6A136.67,136.67,0,0,1,340.9,455c2.63-2.41,2.53-2.62-.88-3.51a135.68,135.68,0,0,0-25.68-3.85c-3.38-.21-6.78-.09-10.13-.69-1.52-.27-3.48-.23-3.88-2.19s1.49-2.82,2.91-3.56a193.18,193.18,0,0,1,28-11.63c13.22-4.43,26.87-6.51,40.74-7.26,3.92-.21,5,.1,8.91.17,2.51-.08,11.85,2.82,9.38,2.66-4.35.09-6.47.55-7.77.57-14.83.23-27.24,5.41-40.32,12C342.11,437.73,342.06,437.85,341.85,438.09Z" transform="translate(-267.03 -422.25)"/><path class="cls-2" d="M393.88,612.91c-1.74-4.56-3.31-8.64-4.84-12.74a26,26,0,0,0-2.6-5.67c-.86-1.27-1.66-2.69-3.53-2.56s-2.58,1.51-3.23,2.93c-1.94,4.23-3.84,8.49-5.77,12.73a87.71,87.71,0,0,1-5.81,11.08,27.34,27.34,0,0,1-2.55-5.86c-2.21-6.5-4.83-12.83-7.49-19.15-.53-1.27-1-2.64-2.67-2.7s-2.26,1.23-2.95,2.42c-4.08,7-6.79,14.68-10.38,21.93-.4.8-.82,1.59-1.33,2.57-1.09-6.92-1.65-13.65-2.37-20.35-.11-1-.24-1.95-.43-2.92-.55-2.79-1.37-3.39-4.09-3-1.16.18-1.5,1.17-1.73,2.15-.93,4-1,8.17-1.5,12.26-.43,3.83-.92,7.65-1.45,12a133.29,133.29,0,0,1-5.93-12.72c-1.71-4.29-4-8.28-6.11-12.37-.56-1.07-1.32-2-2.67-2s-2,1.07-2.46,2.19c-3.25,7.28-5.89,14.8-8.72,22.24-.4,1.06-.88,2.1-1.4,3.33a32.18,32.18,0,0,1-3.43-5.85c-2.65-5.66-5.2-11.37-7.84-17-.79-1.7-1.36-3.77-3.73-3.87s-3.21,1.89-4,3.55c-2.53,5-4.07,10.5-6.23,15.7-.19.45-.35.91-.63,1.65a79,79,0,0,1-2.33-10.19,179.11,179.11,0,0,1-2.57-39.17,174.67,174.67,0,0,1,1.71-17.82,1.78,1.78,0,0,1,1.36-1.64,117.6,117.6,0,0,1,29.67-6.9,296.17,296.17,0,0,1,43.56-1.35c14.75.61,29.47,1.69,43.59,6.57a12.55,12.55,0,0,0,2.08.73c3.19.47,4.23,2.35,4.51,5.47,1,11.66,2,23.29.91,35C397.58,593.28,396.58,602.91,393.88,612.91Z" transform="translate(-267.03 -422.25)"/><path class="cls-3" d="M273.62,540.38a159.32,159.32,0,0,1,3.59-16.32,2.16,2.16,0,0,1,1-1.23c23.4-16.25,47.3-31.74,71.39-47,3.3-2.09,6.12-2.51,9.42-.56a40.79,40.79,0,0,0,4.46,2.17c1.29.56,1.42,1,.21,1.9-4.14,3-8.31,5.95-12.36,9.06-19.08,14.6-39.61,27.1-59.17,41a21,21,0,0,0-3.39,2.54C284.66,536.44,279.16,538.33,273.62,540.38Z" transform="translate(-267.03 -422.25)"/><path class="cls-4" d="M377.34,489.14c-11,8.27-22.55,15.48-33.63,23.34-8.5,6-17.16,11.84-25.6,18a11.39,11.39,0,0,1-6.27,2.11,128.77,128.77,0,0,0-22.78,3.24c-.5.12-1,.33-1.4.09,18.71-12.73,38.14-24.47,56.59-37.65,7.86-5.62,15.82-11.17,23.19-17.46.71-.6,1.13-.43,1.74.06A50.58,50.58,0,0,1,377.34,489.14Z" transform="translate(-267.03 -422.25)"/><path class="cls-3" d="M320,531.24c7.75-5,15.19-9.76,22.46-14.78,9.36-6.47,18.78-12.86,28.13-19.34,2.32-1.61,4.52-3.41,6.71-5.2.7-.58,1-.58,1.5.19,1.7,2.56,3.19,5.24,4.69,7.92.59,1.06.33,1.57-.57,2.23-9.92,7.28-19.84,14.56-30.13,21.32-3.39,2.23-6.7,4.57-10.06,6.86a3.35,3.35,0,0,1-2,.81C334,531.23,327.23,531.24,320,531.24Z" transform="translate(-267.03 -422.25)"/><path class="cls-4" d="M278.3,520.51a78.65,78.65,0,0,1,5.63-14.91,8.24,8.24,0,0,1,2.27-2.16,253.39,253.39,0,0,1,34.71-23.33c4.52-2.57,9.1-5.06,13.52-7.8a11.41,11.41,0,0,1,7.28-1.38,47.61,47.61,0,0,1,8.39,1.48C325.93,488.12,301.37,503,278.3,520.51Z" transform="translate(-267.03 -422.25)"/><path class="cls-2" d="M355,428.08a153.68,153.68,0,0,0-18.47,8.19c-1.16.59-2.19,1.33-1.83,2.83s1.44,1.75,2.77,2c10.48,1.88,21.16,2.2,31.65,4,1.32.23,2.63.57,4,.88-.18.9-1,.87-1.52,1.11-8.93,4-17.28,9-24.13,16.05-2.6,2.66-4.84,4.68-8.84,3.62-1.59-.42-3.37.47-5.32,0a40.78,40.78,0,0,1,5.56-5.18,44.84,44.84,0,0,0,6.66-6.11c2.24-2.82,1.65-5.28-1.72-6.67a48.41,48.41,0,0,0-8.74-2.19A140.25,140.25,0,0,0,308.66,444h-3a8.35,8.35,0,0,1,2.94-1.84C321,436.64,333.66,431.75,347,429c2.64-.55,5.33-.88,8-1.32a.25.25,0,0,1,.08.27C355.07,428,355,428.08,355,428.08Z" transform="translate(-267.03 -422.25)"/><path class="cls-4" d="M347.18,531.6a153,153,0,0,0,17.61-11.27c6.92-4.92,13.71-10,20.51-15.13.87-.65,1.19-.74,1.66.32,1.56,3.56,3,7.16,4.25,10.86.25.76.26,1.15-.47,1.67q-10.11,7.14-20.13,14.38a4.13,4.13,0,0,1-3.08.9C360.78,532.6,354,532.05,347.18,531.6Z" transform="translate(-267.03 -422.25)"/><path class="cls-4" d="M314.59,596.52a115.61,115.61,0,0,1,5,10.66,3.42,3.42,0,0,1-.15,2.14,118.47,118.47,0,0,0-1.76,15.94c-.64,9.45-1.45,18.87-3.78,28.09a.85.85,0,0,1-.67.77c-.63-4.07-1.21-8.11-1.89-12.13-1.79-10.56-1.5-21.23-1.79-31.87a4.81,4.81,0,0,1,.37-1.79C311.41,604.51,312.93,600.7,314.59,596.52Z" transform="translate(-267.03 -422.25)"/><path class="cls-4" d="M355.64,659.13c-1.71-4.55-1.88-9.3-2-14-.27-11.52-.51-23,0-34.55.13-3.06.66-6.11,1.08-9.15a4.33,4.33,0,0,0-.15-2.86c-.36-.7.21-1.24.69-1.84,2.11,5,4.22,10,5.84,15.11.8,2.52,0,5.15-.31,7.69-.8,7.09-1.43,14.19-2.07,21.29A137.37,137.37,0,0,1,355.64,659.13Z" transform="translate(-267.03 -422.25)"/><path class="cls-3" d="M287.05,499c5-9.56,11.41-17.79,21.4-22.61a59.68,59.68,0,0,1,21.9-5.43C315.42,479.61,300.47,488.11,287.05,499Z" transform="translate(-267.03 -422.25)"/><path class="cls-3" d="M372,533.43a129.65,129.65,0,0,0,19.34-13.85A72.82,72.82,0,0,1,393.6,528c.12.5-.31.76-.64,1q-4,3.29-8,6.59a1.29,1.29,0,0,1-1.32.3C379.89,534.93,376.06,534.17,372,533.43Z" transform="translate(-267.03 -422.25)"/><path class="cls-4" d="M387.32,537c2.46-1.93,4.9-3.35,7.1-5.45a77.27,77.27,0,0,1,1.76,8.92C393.21,539.27,390.53,537.93,387.32,537Z" transform="translate(-267.03 -422.25)"/></svg>