<svg id="Layer_1" data-name="Layer 1" xmlns="http://www.w3.org/2000/svg" viewBox="0 0 327.5 325.31"><defs><style>.cls-1{fill:#d69629;}.cls-2{fill:#f4d984;}.cls-3{fill:#787777;}</style></defs><title>Enemy4</title><path class="cls-1" d="M170,597.2c6.69.22,12.82,2.66,19.24,4.86-3.17-6.74-2.3-13.3.14-19.84a19.68,19.68,0,0,0,.66-2c1-4.33-.41-6.21-4.79-6.14a9.84,9.84,0,0,1-4.62-.65c-2.36-1.15-2.95-3.32-1.49-5.46,5.19-7.62,17.88-10.18,25.55-5.16q7.43,4.86,5.58,14.37a32,32,0,0,0-.8,7.49c.2,4.24,2.61,5.69,6.49,4a8.52,8.52,0,0,0,4.91-5,161.1,161.1,0,0,0,9.44-36.36c2.57-17.8,4.2-35.72,7.55-53.42a86,86,0,0,1,11.76-29.8c2.11-3.37,5-6.05,7.68-8.93.89-1,.83-1.36.73-3.08-.28-5.05-.69-10.42-1-15.43-.74-12.32-2.24-24.17-2.12-36.53,0-1.12-.23-1.47-1.44-1.39-2.43.16-4.87.12-7.31.12-2,0-3.66-.78-3.87-3s1.41-3.07,3.18-3.48A76.06,76.06,0,0,1,253.6,391c1.44-.18,1.83-.71,1.81-2.08-.07-4.17-.13-8.34,0-12.51.12-3.06-.29-8.31,3.46-9.28,2.55,1.17,2.93,6.14,3,9.06.13,3.85.15,7.71,0,11.57-.06,1.69.59,2,2,1.75,1.86-.29,3.73-.5,5.59-.78a8.1,8.1,0,0,1,6.3,1.17c2.27,1.66,2.32,3.43.16,5.18-1.74,1.4-3.81,1.73-5.94,2s-4,.61-6.06.76c-1.34.1-1.63.67-1.57,1.91.25,4.95.34,9.91.6,14.85.6,11.08,1.28,22.14,1.93,33.41,29.95-20.44,61.12-19.28,93.27-4.86-.64-5.68.1-11.06.13-16.46,0-9.05.12-18.11.36-27.15.06-2.24-.26-3.22-2.82-3a9.5,9.5,0,0,1-7.51-2.76c-.75-.71-1.52-1.45-1.29-2.62s1.4-1.69,2.46-1.89a53.19,53.19,0,0,1,7.2-1.06c1.61-.1,2.15-.51,2.1-2.18-.15-4.89.65-9.71,1.35-14.53,0-.15,0-.31.05-.47.3-1.25.75-2.74,2.17-2.66s1.86,1.57,2,2.86c.51,4.69,1,9.37,1.42,14.07.12,1.49.53,2.05,2.11,1.94a37,37,0,0,1,10.53.89c2.68.57,4.2,2.38,4,4.71a4.56,4.56,0,0,1-4.87,4.17c-3,0-6-.37-8.93-.65-1.61-.15-2.11.35-2.09,2.07.15,11.09.13,22.19.24,33.29.06,5.35.29,10.69.4,16a2,2,0,0,0,.82,1.8C382.88,460,390,475,393.88,492.16c3.53,15.47,5.15,31.11,6.06,46.91.83,14.18,1.35,28.43,4.63,42.36a59.34,59.34,0,0,0,3.77,10.62c1.13,2.54,3.45,2.4,5.62,2.42s2.33-1.74,2.66-3.28c.56-2.53,1.21-5,1.62-7.59,1.39-8.79,9.38-14,17.38-14.6a21.68,21.68,0,0,1,9.32.82,10.44,10.44,0,0,1,4.79,3.3c2.49,3.16,1.59,6.45-2.16,7.92-.14.06-.3.08-.45.13-7.57,2.34-11.82,7.32-12.32,15.37a28.63,28.63,0,0,1-1,5.08c-1.14,4.6-3.56,8.19-8.4,10,3.51,2.66,7,4.32,11.37,3,2.63-.77,5.27-1.54,8-2.09,9.06-1.83,17.37-.55,24.16,6.32a9.09,9.09,0,0,1,2,10c-1.11,2.37-2.73,3-4.94,1.76-5.12-2.94-10.26-2.84-15.57-.53-6.47,2.81-12.61,6.31-19.2,8.89-8.84,3.47-17,2.91-24.59-3.12A44.32,44.32,0,0,0,396.41,630c-4.71-2-9.7-2.23-14.32.25-6,3.23-12.12,5.8-19.58,5.87a34.89,34.89,0,0,0,7.49,3.64,76.32,76.32,0,0,1,15,7.86,24.21,24.21,0,0,1,6.38,6.22,10.22,10.22,0,0,1,.4,11.56A28,28,0,0,1,377.87,678c-3.77,1.54-7.55,3.06-11.29,4.67-7.71,3.32-16.07,4.09-24.12,6.09a120.09,120.09,0,0,1-23.25,3.61c-3.67.17-6.22-1-7.48-3.76-1.13-2.43-.36-5.39,2-7.91a9.36,9.36,0,0,1,3.79-2.3,87.37,87.37,0,0,1,10.7-2.73c8.18-1.81,16.55-2.89,24.23-6.55.35-.17.73-.29,1.07-.47,5.48-3,5.45-3.68.71-7.77-2.44-2.11-5.62-2.62-8.72-3.23-8.81-1.72-17.35-4.19-25.17-8.83-4.78-2.84-7.88-7-10.74-11.61-3.18-5.16-7.71-8.81-14.13-9.28-10.1-.75-18.18,3.13-24.73,10.66-2.37,2.73-4.46,5.71-7.23,8.08-3.79,3.24-8.33,4.92-13,6.27A113,113,0,0,0,237,657.7a15.13,15.13,0,0,0-7,5.44,44.22,44.22,0,0,1,6.55,3c2.59,1.64,3,3.55,1.42,6.18a7.59,7.59,0,0,1-4.17,3.31C224,679,214.92,677.69,207,671.1c-4.51-3.74-6.11-8.82-4.49-14.68a11.89,11.89,0,0,1,3.09-5.21,60.07,60.07,0,0,1,16.3-11.9c5-2.46,9.93-5.07,14.68-8a17.06,17.06,0,0,0,4-3.31c.34-.39,1-.81.62-1.37s-1.2-.41-1.74-.13c-.9.46-1.69,1.12-2.57,1.63-9.87,5.76-20.39,6.94-31.61,5.32-9.53-1.37-17.3-5.74-24.29-12-3.28-2.93-6.49-5.89-10.94-7.12a13.12,13.12,0,0,0-9.83.62c-2.92,1.44-6.12,1.95-9.29,2.52a3.38,3.38,0,0,1-2.73-.33c-1.29-.58-2-.63-2.88-1.76a2.42,2.42,0,0,1-.93-1.48,19,19,0,0,1,0-5.54,5,5,0,0,1,1.36-3.14c.93-1,2-1.93,2.89-3l.45-.32c.34-.2,5.28-3.12,5.68-3,2.89,1-4.85,4.14-5.19,4.61a10.91,10.91,0,0,0-3.32,5.2c-.27,1.7-.63,3.39.32,5a3.39,3.39,0,0,0,1.52,1.06,5.86,5.86,0,0,0,4.16-.24c3.1-1.14,6.17-2.35,9.27-3.48,5.49-2,10.52.06,15.32,2.61,2.23,1.19,4,3,5.92,4.66a46.91,46.91,0,0,0,25.34,11c9.73,1.17,18.57-.85,27.17-5A13.24,13.24,0,0,1,239.7,623a4.29,4.29,0,0,1,4.35,1.78c1.06,1.62.63,3.31-.33,4.88a15,15,0,0,1-5.14,4.77A160.92,160.92,0,0,1,222.82,643a60.53,60.53,0,0,0-14.47,10.09c-3.87,3.52-3.92,9.56-.19,13.83,2.75,3.15,6.37,4.75,10.36,5.71a24.42,24.42,0,0,0,12.13-.09,10.38,10.38,0,0,0,2.84-1.12c1.67-1,1.67-1.93,0-2.92a25.1,25.1,0,0,0-3.5-1.41c-4-1.62-4.73-4.38-1.89-7.71,2.59-3,6-4.74,9.66-6.15,4.69-1.82,9.48-3.39,14.28-4.9a25.17,25.17,0,0,0,12.39-8.63,55.08,55.08,0,0,1,13.44-12.44,26.63,26.63,0,0,1,30.6,1.22,48.25,48.25,0,0,1,5.72,5.25,5.73,5.73,0,0,1,2,3.67c.06,2.8,1.78,4.47,3.79,5.89a54.44,54.44,0,0,0,17.21,8.1c3.65,1,7.3,1.91,11,2.6,4.41.81,8.44,2.52,11.3,6.26,3.22,4.21,2.75,7.69-1.75,10.5a52.5,52.5,0,0,1-16.91,6.42c-5.46,1.17-11,2.16-16.41,3.38a49.09,49.09,0,0,0-5.45,1.56,6.4,6.4,0,0,0-2.86,2,3,3,0,0,0,2.16,5.06,32.8,32.8,0,0,0,8.44-.73c11-2.35,21.83-5.44,32.7-8.33a103.59,103.59,0,0,0,20.49-8.38c3.57-1.83,5.85-5,7.86-8.28a6.05,6.05,0,0,0-.59-7.45c-3.88-4.92-9.34-7.59-14.75-10.29-2-1-4-1.76-6.1-2.55a35.89,35.89,0,0,1-14.66-10.39,3.15,3.15,0,0,1-1.11-2,.89.89,0,0,1,.77-.73c2.43.54,4.34,2.16,6.57,3.13,1.14.5,2.15.84,3.34.16a8.81,8.81,0,0,1,2.95-.81A46.52,46.52,0,0,0,379.41,627a18.51,18.51,0,0,1,15-1.55A46.56,46.56,0,0,1,408.46,632c7.74,5.59,15.61,5.18,23.86,1.47,3.95-1.78,7.8-3.74,11.7-5.62,4.44-2.13,9-3.76,14.06-3.4a17.93,17.93,0,0,1,7.28,1.73c.46.24,1,.67,1.52.2s.28-1,.2-1.56a7.26,7.26,0,0,0-3-4.63,20.84,20.84,0,0,0-17.39-3.86c-3.32.65-6.47,1.95-9.8,2.63a16.05,16.05,0,0,1-10.91-1.8c-7.06-3.61-12.32-9.16-17.17-15.21a14.33,14.33,0,0,1-1.8-3c-4.27-9.68-8-19.55-9-30.16-1.08-11-2.06-22.07-2.53-33.14a206.22,206.22,0,0,0-9-53.84,54.89,54.89,0,0,0-16.12-24.85,5.88,5.88,0,0,0-1.1-.89c-.15-.08-.31-.08-.75.11,0,3.45-.28,7,.23,10.6a12.55,12.55,0,0,1-.91,6.7,3.77,3.77,0,0,1-3.58,2.6,4.17,4.17,0,0,1-4.05-2.33,11.94,11.94,0,0,1-1.32-4.75c-.24-2.9-.85-5.78-.66-8.7.23-3.55-.58-7.05-.5-10.59,0-1.64-1.09-2.33-2.35-2.91a102.5,102.5,0,0,0-26.41-8.6c-15.6-2.57-30.94-1.74-45.67,4.38a67.61,67.61,0,0,0-26.16,18.88c-7.67,9.06-12.26,19.48-14.68,31-2.85,13.49-4.47,27.16-6.18,40.82-2,15.57-4.36,31-9.43,45.93a62.26,62.26,0,0,1-13.63,22.7c-5.05,5.39-11.16,7.75-18.56,6a35.94,35.94,0,0,1-4.11-1.07c-6.78-2.52-13.5-5.24-20.53-7a32.53,32.53,0,0,0-12.36.25c-.26.09-2.5.4-2.77.44-.87-.1-.1.14-.12-1.46.53-.48,1.2-.29,1.81-.34A92.06,92.06,0,0,1,168.19,597,3.76,3.76,0,0,1,170,597.2Z" transform="translate(-144.13 -367.08)"/><path class="cls-2" d="M149.12,603.39a24.82,24.82,0,0,1,8.08-3.7h0a35.64,35.64,0,0,1,13.14-.44c6.38,1.4,12.39,3.91,18.47,6.18a38.81,38.81,0,0,0,8.41,2.17c6.6.9,11.49-2.12,15.82-6.64,7.95-8.3,12.39-18.38,15.42-29.27,3.55-12.76,5.44-25.78,7.12-38.87,2-15.65,3.22-31.5,7.72-46.66,7.73-26.1,25.65-41.89,51.91-48,21.45-5,41.92-.94,61.53,8.48a2.68,2.68,0,0,1,1.68,2.69c.41,7.06.15,14.16,1.37,21.17a9.73,9.73,0,0,0,.61,2.25c.74,1.68,1.83,3,3.9,2.82s3-1.69,3.41-3.43a22.15,22.15,0,0,0,.32-5.87c-.07-4,0-8,0-12.14a54.51,54.51,0,0,1,10.44,10.58c6.46,8.71,9.63,18.74,12.05,29.13,3.46,14.91,4.94,30,5.82,45.27.83,14.48,1.16,29.09,5,43.24.39,1.44.84,2.86,1.35,4.25,1.29,3.53,2.68,7,4.22,10.42,3.22,7.09,8.85,12.25,14.93,17,7.06,5.47,14.45,5.42,22.4,2.33,6.52-2.53,12.84-1.25,18.72,2.24,3.38,2,5.54,4.88,4.86,9.17-.69.37-1.16-.22-1.66-.48-5-2.63-10.21-2.76-15.54-1.26a67.09,67.09,0,0,0-11.41,5c-4.64,2.3-9.31,4.54-14.4,5.65a16.76,16.76,0,0,1-11.88-1.4c-4.57-2.43-8.77-5.52-13.63-7.43-7.26-2.87-14.32-3.89-21.41.78-4,2.64-8.75,3.76-13.49,4.66-1.35.26-3-.2-4,1.43-.3.51-.85-.06-1.22-.24-2.66-1.35-5.3-2.72-7.95-4.09-.59-.27-.71-.07-.48.48a39.87,39.87,0,0,0,18.45,12.9,60.29,60.29,0,0,1,13.48,7.15,22.71,22.71,0,0,1,5.4,5.22,6.46,6.46,0,0,1,.32,7.51A22.3,22.3,0,0,1,377,674c-2.56,1-5.12,2-7.6,3.15-10.17,4.79-21.29,6.29-32,9.36-5.72,1.65-11.49,3.23-17.51,3.5-3.16.13-5-.76-5.47-2.91-.44-1.87,1.25-4.42,3.76-5.37,4.19-1.6,8.62-2.33,13-3.23,7.22-1.48,14.52-2.59,21.32-5.65.78-.35,1.59-.66,2.37-1,7.63-3.6,8.11-9,1.21-14-3.42-2.47-7.48-3-11.48-3.89-8.17-1.71-16-4.26-23.17-8.79a22,22,0,0,1-5.35-4.91c-.29-.36-.73-.91-.63-1.19,1-2.7-1-4.09-2.46-5.63a36.55,36.55,0,0,0-4.39-4c-9.49-7.28-21.4-7.63-31.37-.94a58.64,58.64,0,0,0-12.72,12.19,24.8,24.8,0,0,1-12.05,8.24c-5.37,1.72-10.68,3.66-16,5.59a19.38,19.38,0,0,0-7.93,5.36c-2.7,3.06-2,5.39,1.77,6.75,1.47.53,2.89,1.2,4.33,1.81,1.72.74,1.48,1.77.35,2.84a9.88,9.88,0,0,1-5.1,2.22,24.83,24.83,0,0,1-18-2.67c-4.31-2.52-7.46-6-7.15-11.55a9.54,9.54,0,0,1,3.38-6.74A63.08,63.08,0,0,1,223.41,642a153.79,153.79,0,0,0,15.29-8.33,15.36,15.36,0,0,0,4.74-4.51,3.42,3.42,0,0,0,.26-4,3.58,3.58,0,0,0-3.85-1.54,16.25,16.25,0,0,0-4.91,1.5c-11.57,6.31-23.8,6.54-36.12,3.19a41.92,41.92,0,0,1-17.16-10A27,27,0,0,0,169,611.36a12.5,12.5,0,0,0-8.29.66,67.62,67.62,0,0,1-8.37,3c-1.53.72-3.1.34-4.67.19a2,2,0,0,1-1.43-1c-1.12-1.81-.76-3.74-.45-5.67C146.12,606.35,147.58,604.84,149.12,603.39Z" transform="translate(-144.13 -367.08)"/><path class="cls-2" d="M215.89,592.51c-3.33,4.2-6.26,8.31-10.85,10.76a8.25,8.25,0,0,1-3.54,1.14c-6.68.28-11.72-5.9-11.1-13.54.25-3,1.42-5.78,2.32-8.61a11.94,11.94,0,0,0,.34-7,5.74,5.74,0,0,0-5.75-4.61c-1.41,0-2.84.08-4.24,0-1.15-.09-1.67-.56-.75-1.79,4.75-6.35,15.85-8,22.12-3.13,3.1,2.39,3.77,5.65,3,9.3a47.22,47.22,0,0,0-1.28,8.61C206.12,590.36,209,593.09,215.89,592.51Z" transform="translate(-144.13 -367.08)"/><path class="cls-2" d="M411.8,598.7c6.11-.16,7.83-1.65,8.9-7.2.46-2.38.92-4.77,1.37-7.15,1.17-6.3,5.38-10.56,11.69-11.6a22.16,22.16,0,0,1,8.2-.11,9.67,9.67,0,0,1,3.29,1.18c1.06.67,2.37,1.47,2.23,2.79-.12,1.07-1.63,1-2.54,1.32-8.6,3.21-13.33,9.27-13.86,18.52a23.91,23.91,0,0,1-1.58,6.6,8.49,8.49,0,0,1-5.24,5.07c-1.88.76-3.57.72-5.05-1C416.91,604.34,414.47,601.71,411.8,598.7Z" transform="translate(-144.13 -367.08)"/><path class="cls-3" d="M350.76,630.8c-.59-.16-.8-.67-1.18-1.2a1.79,1.79,0,0,1,1.66.72Z" transform="translate(-144.13 -367.08)"/><path class="cls-1" d="M315.93,590c.2-5,.4-9.9,2.29-14.58a15.54,15.54,0,0,1,.61-1.52c.4-.74.74-1.89,1.75-1.58s.56,1.55.35,2.24a51.46,51.46,0,0,0-1.78,16.56,12,12,0,0,0,3,7.95c2.14,2.42,4.14,2.64,6.47.41a31.4,31.4,0,0,0,8.95-16.22c.48-2.13,1.13-4.23,1.78-6.32.31-1,.87-2,2.14-1.68,1.07.32,1.14,1.45,1,2.4-1.18,8.28-3.63,16.06-9.29,22.47-2.43,2.75-5,5.47-9.22,4.29-4.4-1.24-6.48-4.71-7.66-8.8A16.81,16.81,0,0,1,315.93,590Z" transform="translate(-144.13 -367.08)"/><path class="cls-1" d="M275.05,573.31a5.22,5.22,0,0,1,3.49,4.19c.86,6.18,1.31,12.31-1.48,18.34-2.68,5.78-8.81,6.88-13.61,2.13-4.52-4.47-6.37-10-7.71-15.62a20.06,20.06,0,0,1-.59-7c.08-.69,0-1.65,1-1.7s1,.91,1.16,1.58c1.14,4.76,2.23,9.53,4.35,14.07a20.27,20.27,0,0,0,4.75,6.81c2.86,2.56,5.48,1.92,6.86-1.4,2-4.88,1.9-9.89,1.39-14.89A16.32,16.32,0,0,1,275.05,573.31Z" transform="translate(-144.13 -367.08)"/><path class="cls-1" d="M291.16,482.47v70.85c0,7.66,11.9,7.67,11.9,0V482.47c0-7.66-11.9-7.68-11.9,0Z" transform="translate(-144.13 -367.08)"/><path class="cls-1" d="M267.93,519.5q29.16-1.51,58.36-.46c7.66.28,7.65-11.63,0-11.91q-29.19-1-58.36.46c-7.62.4-7.67,12.31,0,11.91Z" transform="translate(-144.13 -367.08)"/></svg>