<svg id="Layer_1" data-name="Layer 1" xmlns="http://www.w3.org/2000/svg" viewBox="0 0 324.03 346.74"><defs><style>.cls-1{fill:#821517;}.cls-2{fill:#a42b2b;}.cls-3{fill:#d45e5e;}.cls-4{fill:#9e9d9d;}.cls-5{fill:#3f3e3e;}</style></defs><title>Enemy1</title><path class="cls-1" d="M269.93,378.51c-4,3-8.26,5.7-12,8.92C240.5,402.23,229,420.21,224.76,442a54.41,54.41,0,0,0,.35,24c.68,2.7.78,2.66,3.25,1.06,14.4-9.38,30.15-15.38,47.82-16.36,2.25-.13,3-.75,3.15-3.06.88-13.2,5.92-25.11,13.67-36,10.1-14.25,23.52-25.38,38.91-34.29A147.29,147.29,0,0,1,355,366.83a24.18,24.18,0,0,1,5.46-1c-1.11,1.34-1.11,1.34-1.81,1.82-10.69,7.49-21,15.46-28.94,25.59-13.63,17.34-20,36.91-19.23,58.48,0,.67-.12,1.45.8,1.72s1.27-.51,1.65-1c1.47-2.1,2.89-4.22,4.32-6.34.63-.93,1.33-1.81,2.69-1.53a2.43,2.43,0,0,1,1.94,2.37c.28,2.95.54,5.91.62,8.87a2.17,2.17,0,0,0,1.68,2.31,85.66,85.66,0,0,1,35.48,25.2,109.05,109.05,0,0,1,10.19,13.89c.49.82.86,1.07,1.82.61a140.37,140.37,0,0,1,30.67-10.6c-16.75-7.84-32.09-17.36-47.89-26.15-2.64-1.47-5.41-2.74-8.09-4.15-2.87-1.51-3-2.86-.6-4.88,29.25-24.18,61.8-43.18,98.83-55.13,1.59-.52,3.15-1.13,4.72-1.71,0,0,0-.13.08-.44h-2.32c-25.59-.31-51.18-.86-76.77-.2a22.35,22.35,0,0,1-5.1-.24c-1-.21-2-.41-2.15-1.52s.68-1.74,1.67-2.22c13.5-6.43,26.93-13,40.82-18.68A437.46,437.46,0,0,1,490,346.4c4.54-.86,9.09-2.13,14.07-1.46-.41,1-1.23,1.08-1.92,1.32-10.31,3.57-20.93,6.26-31.22,9.9-14.95,5.3-29.66,11-42.77,19.83-.53.35-1.05.7-1.55,1.08-.11.08-.12.27-.16.37,9.25-.47,18.5.19,27.75.44,10.63.29,21.27.42,31.89,1.19,7.87.57,15.15,3.08,22.27,6.07a5.28,5.28,0,0,1,2,1.57c.81,1.06.63,1.94-.9,2.4-37.93,11.41-72.78,28.32-104.24,51.26a58.72,58.72,0,0,0-10.06,8.93c-2.72,3.17-2.46,3.95,1.12,6.14,11.73,7.2,22.81,15.27,34.6,22.42,11.42,6.94,23,13.72,33,22.55a38.45,38.45,0,0,1,6.47,6.79c.47.69,1.13,1.38.62,2.28s-1.39.55-2.18.56c-6.34.12-12.6-1.36-18.95-.93-19.84,1.34-39.56,3.33-58.62,9.09-3.67,1.11-6.53,3.92-10.56,4.28-1,.09-.77.9-.66,1.61a97.91,97.91,0,0,1,1.48,10.16,99.52,99.52,0,0,1-4.93,35.3,2.6,2.6,0,0,0,.26,2.34,110.3,110.3,0,0,1,14.25,39.67c3.13,20.49.21,40.1-10.54,58.44a16.18,16.18,0,0,1-6,6.29c6.77-24.47,2.14-48.06-4.21-71.53a43.64,43.64,0,0,0-6.25-13.24,4.78,4.78,0,0,1-.38,1.05C357.31,601.8,348.84,609,339,615a4.47,4.47,0,0,0-2.47,4.41c0,13-3.11,25.56-6.87,38-3.58,11.87-10.74,21.84-18.21,31.7a2,2,0,0,1-.31.35c-1,.88-1.86,2.72-3.46,1.8s.28-2.1.63-3.1c4.33-12.15,6.78-24.54,5.77-37.4-.58-7.35-1.2-14.7-1.75-22-.08-1.09-.27-1.32-1.56-1.09-7.18,1.25-14.35,2.65-21.66,3-2.46.11-3,1.89-3.75,3.36a63.35,63.35,0,0,0-5.66,15c-2.8,12.12-3.26,24.22.61,36.26a8.24,8.24,0,0,1,.76,3.27c-1.34.2-2-.63-2.78-1.26-9.24-7.29-14-17-16.56-27.73a63.83,63.83,0,0,1-.72-29.19c.35-1.55,0-2.28-1.73-2.73a62.15,62.15,0,0,1-7.78-2.57c-1.38-.55-2-.26-2.67.88-3.65,6-5.5,12.61-7.72,19.11-4.43,13-2.1,25.5,2.66,37.89.71,1.85,1.49,3.68,2.23,5.52.26.63.67,1.33-.18,1.82s-1.35-.16-1.83-.67c-8.66-9-15-19.14-17.78-31.13-3-13-4.35-26.11-1.64-39.34a51.31,51.31,0,0,1,2.47-7.84,2.85,2.85,0,0,0-.44-3.17c-2.77-3.33-3.81-7.32-4.75-11.34a1.59,1.59,0,0,1,.47-1.86,2,2,0,0,1,2.27,0c2.37,1.32,4.75,2.64,7.09,4a39.07,39.07,0,0,0,17.05,5.54c.83,0,1.5.31,1.73-.89,2.36-12.19,6.35-24,10.63-35.65.44-1.22.77-2.48,1.31-3.66.93-2.08,2.72-2.3,4-.38,6.13,9.19,14.25,17,20.91,25.77,1.22,1.62,1.82,1.23,2.91-.11a27.25,27.25,0,0,0,6.05-16.73c.63-16.58-2.55-32.61-8.06-48.82-2.33,8.7-5.47,16.68-8.08,24.81-.32,1-.62,2-1,3-1,2.62-3.24,3-5.15.79a19.56,19.56,0,0,1-1.88-2.65c-4.19-6.66-10-12.08-15.42-18.36-2,6.11-3.95,11.84-5.75,17.62-1.86,6-3.77,11.94-3.71,18.27,0,1.1.1,2.42-1.39,2.88s-2.37-.33-3.22-1.17a114.69,114.69,0,0,1-12.24-13.58c-2.58-3.49-5.23-6.94-7.82-10.38-.8.27-.84.84-1,1.31-4.52,11.27-9.66,22.33-12.81,34.06a39.3,39.3,0,0,0-1.41,6c-.19,1.75-1.46,2.26-2.76,2.58s-1.66-1-2.11-1.8c-8.89-15.78-15.65-32.09-13.82-50.44a134.67,134.67,0,0,1,3.75-21.8,4.91,4.91,0,0,0,0-2.89,111.34,111.34,0,0,1-5.48-33.43,12.92,12.92,0,0,1,.56-4.05c.15-.48.49-1.2.87-1.27a1.66,1.66,0,0,1,1.54.94,18.82,18.82,0,0,1,1.06,2A78,78,0,0,0,202,494.27l3.43-4.4a1.26,1.26,0,0,0,.07-1.48c-2.87-6.11-3.52-12.68-3.52-19.18,0-15.59,2.93-30.74,10.71-44.67,9.34-16.73,23.27-29.49,40.75-38.81,4.62-2.46,8.74-5.77,13.9-7.33.37-.11.76-.18,1.14-.27C269.09,377.89,275.33,374.93,269.93,378.51Z" transform="translate(-186.86 -344.75)"/><path class="cls-2" d="M347.4,373.62c-12.38,9.24-25.07,21.64-31.63,35.23a85.5,85.5,0,0,0-8.51,44.79,8.39,8.39,0,0,1-2,6.32c-6.08,8.09-14,14.46-21.44,21.32s-15.6,12.63-23.49,18.84a59.74,59.74,0,0,0-8.73,9.06c-.72.86-.18,1.16.74,1.28,7.92,1,15.79,1.54,23.72-.14a142.33,142.33,0,0,0,28-9.56c9.31-4.11,13.5-11.84,16.1-20.59,1.78-6,2.13-12.11,2.45-18.38a24.22,24.22,0,0,1,6.09,2.35c16.48,8.22,28.69,20.42,37.8,35.51,1.14,1.89,2.48,2.18,5.6,1.07,5.6-2,11.18-4,16.79-6,8.08-2.81,16.52-4.25,24.95-5.77,1.56-.28,4.22-.22,4-2-.16-1.49-2.76-1.08-4.33-1-4,.19-7.44-1.35-10.8-2.92-15.61-7.27-30.37-15.95-45.34-24.28-2.85-1.58-5.78-3-8.84-4.64,5.22-4.25,10.4-8.48,15.87-12.4,25.49-18.26,53.46-32.32,83.4-43,3.26-1.16,6.27-2.79,9.48-4,.59-.22,1-.5,1-1.13s-.81-1-1.44-1c-2.5-.25-5-.47-7.52-.61-21.17-1.25-42.37-1.16-63.57-1-4.53,0-9.06,0-13.58,0-.16-.48.27-.51.51-.63a486.16,486.16,0,0,1,78.16-31.06c.46-.13.94-.2,1.41-.3s.61,0,.56.43c-10.07,4.26-19.92,8.86-28.5,15.51-.24.19-.52.36-.77.55-1.23.92-2.7,2.05-2.21,3.5.43,1.27,2.3.69,3.52.75,13.46.6,26.94.91,40.38,1.78,13.21.85,26.66.5,39.24,5.41.8.31,1.79.27,2.47,1.22-5.8,1.52-11.61,2.73-17.28,4.43-14.42,4.31-27.66,11.07-41.17,17.27a246.22,246.22,0,0,0-47.95,29.31,43.85,43.85,0,0,0-9.06,8.88c-2.08,2.91-2.06,5.77-.22,7.79.79.87,2,1,2.83,1.72,14.21,11.92,31,20.39,46.36,30.84a247.8,247.8,0,0,1,24.05,18.15c.05.89-.57.58-1.05.51-14.82-2.53-29.45-.1-44.09,1.61a142,142,0,0,0-28.38,6,63.27,63.27,0,0,0-11.17,4.9c-1.56.87-2.33.61-2.89-1.1-.73-2.23-1.4-4.54-3.16-6.35a1.15,1.15,0,0,0-1.29-.45c1.86,9,5.19,17.81,5,27.15s-1.85,18.39-4.09,27.83a53.83,53.83,0,0,0-6.9-7.64,11.24,11.24,0,0,0-1.68-1.3,1.22,1.22,0,0,0-1.37,0c-.49.36-.28.85-.07,1.24a8.83,8.83,0,0,0,1,1.53c12.82,14.89,20.22,32,23.27,50.78s0,36.89-8.17,54.27a1.44,1.44,0,0,1-.66.66c.58-4.65,1.09-9.27,1.38-13.91.73-11.54-.71-22.92-2.85-34.24-1.92-10.11-4.66-20-10.47-28.9a32.62,32.62,0,0,0-11.54-10.81c-.57-.32-1.25-1.1-1.88-.27-.47.63.32,1.1.74,1.52,2.34,2.32,4.51,4.78,6.63,7.29a1.89,1.89,0,0,1,0,2.78,77,77,0,0,1-23.2,21.52c-1.2.73-1.76,1.18-2-.7a70.47,70.47,0,0,0-2.25-9.31c-.66-2.35-2.26-4.13-3.63-6.06-.73.23-.75.28-.42,1.43.32,3.87,1.75,7.52,2.53,11.3a68.7,68.7,0,0,1,.49,23.15,133.28,133.28,0,0,1-8.83,33.94,80.52,80.52,0,0,1-8.07,14c-.33.48-.49,1.19-1.52,1,4.23-9.84,4-20.12,3.5-30.4-.21-4.33-1.16-8.65-1-12.95a61.29,61.29,0,0,0-3.16-19.89c-1-3.34-2.41-6.59-3.7-9.85a3.86,3.86,0,0,0-3-2.72c1.49,5.83,2.84,11.48,4.41,17.08.47,1.64.58,2.38-1.55,2.77-15.88,2.94-31.73,5-47.66.34a129.09,129.09,0,0,1-25.19-10.14c-6.17-3.35-9.54-8.86-11.86-15.74,2,1.13,3.38,1.9,4.74,2.73a46.18,46.18,0,0,0,19.21,6.6c3.29.35,4.63-.27,5-2.82,1.3-8.44,4.05-16.53,6.72-24.64,1.35-4.12,2.85-8.2,4.33-12.42a3.09,3.09,0,0,1,.74.55c5.76,8.49,13.17,15.81,19.5,23.9,2.46,3.15,4.86,3,7.41-.15,1-1.19,1.91-2.4,3.06-3.86l.42,2c.15-.07.3-.09.35-.17,2.32-3.21,2.4-7,2.86-10.61,2.5-19.29-.53-38-7.38-56.21a15.76,15.76,0,0,0-2.66-4.58,2,2,0,0,0-2.06-.93c-1,.21-1.3,1-1.44,1.88-1.7,10.25-6.34,19.69-9.38,29.58,0,0-.1.05-.33.14-4-7.12-10.22-12.66-15.84-18.64-3.11-3.31-5-2.85-6.64,1.29-3.31,8.56-6.47,17.15-8.49,26.07a25.4,25.4,0,0,0-.82,6.55c-.94.32-1.12-.49-1.5-.86-6.22-6.05-11.08-13.1-16.48-19.74-1.19-1.46-2-3.66-4.48-3.39s-2.47,2.64-3.14,4.22c-4.43,10.57-9.42,21-12.57,32-.5,1.76-.89,3.54-1.33,5.3-12-19.52-15.05-40.15-8.85-61.89,3.42,4.55,8.49,4.05,13.63,3.24a44,44,0,0,0,11-3.34,11.23,11.23,0,0,0,4.7-3.82c1.34-1.84.25-2.58-1.21-3.21a54.27,54.27,0,0,1-8.65-5,48.62,48.62,0,0,1-9.52-9.09,1.7,1.7,0,0,1-.21-2.41c11.88-17.79,27.77-30.95,49.23-37.84,7.43-2.39,15.1-3.43,22.85-4.23,1.61-.16,1.5.69,1.49,1.63a62.12,62.12,0,0,0,2.1,14.64,9,9,0,0,0,2.17,4.18c.57-2.8.16-5.07,0-7.33-.34-5.07-.56-10.11-.46-15.22.5-23.65,12.78-41.65,30.47-57.14a185.25,185.25,0,0,1,25.7-18.38,50.17,50.17,0,0,1,5-2.34C344.56,374.29,347.35,372.25,347.4,373.62Z" transform="translate(-186.86 -344.75)"/><path class="cls-3" d="M256.7,507.9c11.32-9,23.21-16.6,33.42-26.09S310,462.62,317.87,451.4c.23.16.43.23.43.31.93,11,1,21.94-3.35,32.54-2.75,6.66-7.58,11.15-14.39,14-9.61,4-19.24,8-29.81,9.28A60.33,60.33,0,0,1,256.7,507.9Z" transform="translate(-186.86 -344.75)"/><path class="cls-2" d="M208.06,486.41c-3.51-15.73-2.11-30.84,2.08-45.83,5.37-19.24,18.48-33.41,34.41-45.91.37,1-.47,1.42-.89,1.91-9.89,11.38-17.27,24-21.21,38.25-2.57,9.26-3.65,18.64-1.76,28.18a15.2,15.2,0,0,0,2.45,6.11c.43.59.89,1,0,1.69A87.42,87.42,0,0,0,208.06,486.41Z" transform="translate(-186.86 -344.75)"/><path class="cls-2" d="M238.09,678.45c-10.86-20.67-14.22-42.25-8.6-65.29,3.3,4.71,8.62,6,13.26,8.23,1.51.72,3.08,1.33,4.74,2.05-4.52,7-7,14.73-9.45,22.43a46.77,46.77,0,0,0,0,29.58c.26.79.48,1.6.69,2.41,0,.13-.05.29-.07.44Z" transform="translate(-186.86 -344.75)"/><path class="cls-2" d="M283,631c-9.3,15.9-10.42,32.47-7.47,49.75-1.31-2-2.74-3.9-3.91-6-7.87-13.85-10.1-28.64-8.3-44.11.19-1.55.56-2,2.29-1.55A78.18,78.18,0,0,0,283,631Z" transform="translate(-186.86 -344.75)"/><path class="cls-3" d="M190.86,485a98.06,98.06,0,0,0,16.64,21.77,41.4,41.4,0,0,0,15.24,9.5c-6.76,2.2-13.11,4.48-20.08,4.23a5.11,5.11,0,0,1-4.56-2.88c-3-5.46-4.15-11.42-5.63-17.29a67,67,0,0,1-2.07-13.49C190.4,486.21,189.68,485.41,190.86,485Z" transform="translate(-186.86 -344.75)"/><path class="cls-4" d="M190.86,485c-.66.5-.08,1.27-.46,1.84-.59-.93-.41-1.91-.48-3C190.72,484.16,190.71,484.64,190.86,485Z" transform="translate(-186.86 -344.75)"/><path class="cls-5" d="M329.38,596.43c-.17-.4-.32-.81-.52-1.2s-.66-.89-.11-1.11.9.36,1.05.88C329.3,595.39,329.58,596,329.38,596.43Z" transform="translate(-186.86 -344.75)"/></svg>