<svg id="Layer_1" data-name="Layer 1" xmlns="http://www.w3.org/2000/svg" viewBox="0 0 245.02 277.34"><defs><style>.cls-1{fill:#2d2d7b;}.cls-2{fill:#4b73b9;}.cls-3{fill:#1b1a4e;}</style></defs><title>Enemy3</title><path class="cls-1" d="M333.74,506.21c10.33.26,20,.39,29.65-1,10.9-1.55,21.95-2,32.72-4.57.82-.19,1.73-.12,2-1.38,1.21-5.49,3.74-10.49,5.9-15.62,1.57-3.75,3.2-7.48,4.75-11.24.23-.56,1.26-1.79-.72-1.39-.16,0-.46-.52-.67-.82-8.11-11.53-17.69-21.87-26.36-32.94-2.28-2.91-4.71-5.73-6-9.28a4.09,4.09,0,0,0-1.31-1.51c-.56-.46-1.15-.9-.78-1.67s1.23-.7,2-.46,1.58.52,2.35.82a378.71,378.71,0,0,1,60.89,29.27c5,3,10.09,5.77,15.09,8.73,1.23.72,2.3,1.3,1.5,3.48-3.84,10.56-8.95,20.62-12.06,31.46a226.54,226.54,0,0,0-7.68,38.8,234.33,234.33,0,0,0-1.22,28.77c0,1.5-.32,3-.37,4.51a3.38,3.38,0,0,1-2.45,3.44c-1.54.47-1.83,1.25-1.11,2.59.87,1.59,1.65.08,2.34-.15a22.54,22.54,0,0,1,5.66-1.51,2.53,2.53,0,0,1,3,2.08c3,13.94,9.79,26.55,14.31,40,.57,1.71,1.37,3.27.64,5.1-.21.55-.3,1.27-1.11.51-.62-.58-1.15,0-1.65.22-2,.87-4,1.85-6,2.7-1,.44-1.39.83-.64,1.91,5.32,7.67,7.94,16.35,9.36,25.45.49,3.13.82,6.3,1,9.46a13.06,13.06,0,0,1-3.24,9.39c-6.08,7.33-14.1,12.17-22.29,16.47a165.12,165.12,0,0,1-34.76,13.27,6.14,6.14,0,0,1-1.11.25c-1.09.12-2.18.06-2.78-1a2.3,2.3,0,0,1,.76-3c2.39-2,4.79-3.93,7.27-5.79a49,49,0,0,0,13.92-15.63,9.42,9.42,0,0,0,.84-7.81q-3.57-10.95-7.15-21.89c-.35-1.08-.64-1.93-2.13-1-18.68,11.88-37.68,23.3-54.41,38a181.7,181.7,0,0,0-13.57,13,31.37,31.37,0,0,0-2,3c-1.12,1.5-2.45,1.59-3.54.16-8.11-10.53-18.37-18.73-28.83-26.72-13.1-10-27.3-18.38-41.15-27.29-.86-.56-1.58-1.19-2.13.44-2.68,8-5.59,15.91-7.65,24.1a6.48,6.48,0,0,0,.56,4.58,42.65,42.65,0,0,0,12.1,15.07c2.6,2.08,5.24,4.1,7.86,6.16.59.47,1.17,1,1.73,1.46.9.81,1.52,1.8,1,3-.61,1.37-1.92,1.49-3.12,1.18-3.28-.85-6.6-1.65-9.77-2.82-6.92-2.54-13.94-5-20.62-8.06-10.09-4.69-19.64-10.34-27.23-18.76-3-3.34-3.82-7.14-3.41-11.53.79-8.54,2.28-16.87,5.64-24.82a52.81,52.81,0,0,1,4.5-8.09c.68-1,.72-1.58-.56-2.1-2-.81-4-1.79-6-2.71a3.34,3.34,0,0,0-.82-.37c-2.25-.34-2.62-1.55-1.82-4,4.48-13.51,11.27-26.18,14.52-40.13.81-3.45,1.77-4,5.17-3.12a42.18,42.18,0,0,1,4.67,1.71c.59.23,1.31.83,1.49-.33.1-.66,1.29-1.61-.11-2-4.11-1.27-3.71-4.74-3.79-7.82-.15-6.35.09-12.7-.33-19.06-1.58-24.07-6.38-47.37-16.18-69.52-1.7-3.85-3.2-7.8-4.78-11.7-.59-1.46.53-2.09,1.46-2.65,2.72-1.64,5.55-3.08,8.23-4.77,17.22-10.86,35.49-19.66,54-27.94,5.16-2.3,10.52-4.16,15.8-6.17.79-.3,1.85-.85,2.5.13s-.45,1.51-1.07,2.1c-1.46,1.4-1.73,3.48-2.88,5.1-3.56,5-7.43,9.74-11.38,14.42-6.48,7.7-13,15.39-18.78,23.61-.3.41-.71,1.16-1,1.12-2-.29-.88.94-.67,1.45,1.54,3.76,3.18,7.48,4.75,11.23,2.15,5.14,4.68,10.14,5.89,15.63.25,1.14,1,1.16,1.81,1.32,8.87,1.86,17.9,2.65,26.87,3.84A200.08,200.08,0,0,0,333.74,506.21Z" transform="translate(-211.77 -424.1)"/><path class="cls-2" d="M290.46,428.36c-6.75,7.9-13.31,15.8-19.9,23.68a126,126,0,0,0-9.66,12.87,9.91,9.91,0,0,1-3.36,3.3c-2.05,1.21-2.62,2.76-1.66,5.14,3.5,8.66,7.83,17,11.42,25.59.11.27.24.54.46,1a64.66,64.66,0,0,1-9.11-1.32c-.64-.12-1.54-.53-1.85.16s.45,1.38,1.07,1.78c2.74,1.79,6,2.13,9.06,2.62,7.83,1.23,15.56,3.09,23.48,3.58,10.34.63,20.55,3,30.95,2.45,9.16-.45,18.3-.21,27.45,0,7.36.19,14.6-1.23,21.91-1.77,11.69-.87,23.2-2.91,34.71-5a11.53,11.53,0,0,0,5.62-2.21c.44-.37,1-.89.67-1.52s-1-.26-1.47-.18c-3.11.52-6.22,1.06-9.64,1.65,3.6-7.94,7.07-15.55,10.5-23.17.62-1.37,1.07-2.82,1.69-4.19a3,3,0,0,0-1.34-4.25c-2.17-1.28-3.49-3.25-4.89-5.25-8.24-11.72-17.86-22.31-27.28-33.06a10.56,10.56,0,0,1-1.29-1.75c4.88,1.84,9.59,4,14.25,6.25,10.71,5.21,21.49,10.31,32,15.85,7.22,3.79,13.84,8.62,21.23,12.11l1.83.89c4.58,2.18,4.61,2.19,2.55,7-4.93,11.5-9.74,23-12.7,35.27a213,213,0,0,0-6.28,58.64c.15,3.92-.53,6-4.57,8-26.64,13.16-51.87,28.8-76.72,45.05-5.23,3.42-9.68,7.72-14.14,12-.68.66-1.22,1.33-2.18.28-9.64-10.56-22.23-17.09-34-24.76-18.41-12-37.67-22.61-57.14-32.8a4,4,0,0,0-1.21-.6c-3.42-.41-3.53-2.68-3.38-5.43.75-13.5-.38-26.91-2.3-40.26a185.69,185.69,0,0,0-14.86-51.09c-1.19-2.61-2.2-5.29-3.29-7.94-.31-.76-.37-1.27.58-1.77,21.19-11.2,41.95-23.27,63.89-33C284.57,430.91,287.52,429.64,290.46,428.36Z" transform="translate(-211.77 -424.1)"/><path class="cls-2" d="M437.75,576.83c2.14,14.2,8.86,26.59,13.54,39.69.71,2,.73,2.8-1.48,3.74-12.91,5.45-26.21,10.13-38.37,17.17-21.38,12.39-42.43,25.34-61.08,41.74a99.83,99.83,0,0,0-15.44,16.25c-.43.6-.62,1-1.26.12-9-11.72-20.11-21.15-32.07-29.57-19.39-13.64-39-27-60.85-36.53q-11.1-4.82-22.32-9.31c-1.9-.76-2-1.56-1.32-3.28,3.47-8.67,6.82-17.4,10.23-26.09a63.6,63.6,0,0,0,3-11.82c.29-1.64.73-1.92,2.4-1.31,9.21,3.36,17.36,8.73,26,13.21A399.07,399.07,0,0,1,332,640c2.07,1.75,3,1.28,4.82-.22,24.31-20.66,51-37.75,79.28-52.4,2.07-1.07,4.11-2.24,6.1-3.48C427,580.93,432.47,579.4,437.75,576.83Z" transform="translate(-211.77 -424.1)"/><path class="cls-3" d="M401.07,695.61a58.25,58.25,0,0,0,16.09-17,15.16,15.16,0,0,0,1.66-13.2c-2.41-7.43-4.24-15.07-8-22-.75-1.4.64-1.27,1.18-1.58,8.44-4.67,17.16-8.77,26-12.61,3.55-1.54,3.49-1.54,5.58,1.73,5.18,8.08,7.18,17.14,8.3,26.48a5.32,5.32,0,0,0,.05.9c2.21,7.63-2.05,12.29-7.51,16.4a127.55,127.55,0,0,1-35.74,18.58C406.37,694.14,404.17,695.34,401.07,695.61Z" transform="translate(-211.77 -424.1)"/><path class="cls-3" d="M266.66,695.51c-1.83,0-3.23-.84-4.69-1.36-12.61-4.49-24.83-9.76-35.69-17.79a62.29,62.29,0,0,1-7-6.05,10.16,10.16,0,0,1-3.08-8.82c.79-7.52,1.88-15,4.52-22.09A59.07,59.07,0,0,1,226.14,629a1.58,1.58,0,0,1,2.38-.68c9.43,4.19,18.82,8.47,27.91,13.4,1.35.73,1.49,1.08.8,2.58A116.93,116.93,0,0,0,249,668.88a11.28,11.28,0,0,0,1.26,7.68,51.54,51.54,0,0,0,14.06,16.69c.66.52,1.3,1,1.94,1.58A4.6,4.6,0,0,1,266.66,695.51Z" transform="translate(-211.77 -424.1)"/><path class="cls-3" d="M427.41,578.36c.18.69-.31.81-.82,1.06a457.45,457.45,0,0,0-74.31,45c-5.68,4.28-11.37,8.54-16.73,13.2-.87.76-1.43,1-2.45.12a440.89,440.89,0,0,0-82.32-53.92c-2.76-1.4-5.43-3-8.3-4.12-2-.77-1.35-1.78-.91-3,.65-1.75,1.55-.27,2.07,0,19.5,10.28,38.73,21.05,57.14,33.22,8.18,5.41,16.91,10,24.39,16.46,2.63,2.26,5.6,4.13,7.84,6.84a1.6,1.6,0,0,0,2.56,0,104.46,104.46,0,0,1,15.62-12.68c23.87-15.66,48.13-30.67,73.52-43.77C426.64,575.83,427.39,576.24,427.41,578.36Z" transform="translate(-211.77 -424.1)"/><path class="cls-1" d="M289.87,565.69c-5.11.2-7.06-2.6-7.27-9.38-.09-2.55,3.3-6,5.83-6,6.4,0,9.77,2.57,9.85,7.59C298.35,562.16,294.73,565.52,289.87,565.69Z" transform="translate(-211.77 -424.1)"/><path class="cls-1" d="M378.37,565.67c-6.56-.25-10.13-6.56-6.89-12.14a4.25,4.25,0,0,1,3.8-2.4,10.34,10.34,0,0,0,2.22-.32c5.17-1.27,8.63,1.74,8.17,7.11-.06.6,0,1.21-.06,1.81C385.3,563.68,382.66,565.84,378.37,565.67Z" transform="translate(-211.77 -424.1)"/></svg>