<svg id="Layer_1" data-name="Layer 1" 
  xmlns="http://www.w3.org/2000/svg" viewBox="0 0 471.17 531.89">
  <defs>
    <style>.cls-1{fill:#205128;}.cls-2{fill:#64ba6a;}.cls-3{fill:#2b2c2c;}.cls-4{fill:#555554;}</style>
  </defs>
  <title>Enemy2</title>
  <path class="cls-1" d="M273.9,282.61c6.74-4.33,13.46-8.81,21.5-10.48,17-3.52,33.7-3.82,49.42,4.89,9,5,15.41,12.38,17.16,22.78,1.61,9.58-.76,18-7.78,25.34-12.69,13.19-28.58,20-45.85,24.3a190.3,190.3,0,0,1-53,5.6c-25.58-.88-50.63,1.51-74.68,11.56-27.59,11.53-41.8,32.63-44.65,61.46-1.49,15.07,4.75,28.66,12.68,41.48,4.44-3.63,8.35-7.19,11.44-11.93,16.7-25.58,40-42,69.86-48.8a13.16,13.16,0,0,0,5.32-2.49c17.77-13.74,37.6-22.74,59.94-25.83a107.52,107.52,0,0,1,38.31,1.64c38.16,8.54,73.48.89,106.1-19.51,13.43-8.41,17.65-20.44,13.34-36.69-4.71-17.72-14.42-31.21-31.86-38.38-3.6-1.48-7.27-3-10-6.24a5.13,5.13,0,0,1,4.14-.57c10.36,1.87,20.56,4.24,28.35,12.1,12.48,12.59,19.22,27.72,19.36,45.51.1,13-6.52,23.1-16.56,30.31-19.06,13.68-41.11,20.12-63.93,24.27-17.79,3.24-35.24.66-52.69-2.63-26.71-5.05-51.68-.2-75.06,13.44-.33.2-1,.24-.9,1,2.95,0,5.89.09,8.82,0C301.53,403.45,336,415,364.66,441.18c25.72,23.51,43.41,52.23,52.09,86.47,9.6,37.86,4.2,74.07-9.4,109.8C401.12,653.84,391.92,668.39,381,682c-.82,1-2.06,1.88-2,3.66,3.3-.16,6.28-1.39,9.25-2.45a277.1,277.1,0,0,0,71.16-37.39c7.85-5.75,15.87-11.26,23.79-16.91,11.73-8.35,25.24-11.72,39.18-13.32,7.93-.91,15.61,1.36,22.37,5.8a20.39,20.39,0,0,1,9.66,17.6c.19,18-4.47,34.65-14.85,49.55-12.26,17.61-27.56,31.77-45.21,44.13-31.9,22.33-67.46,35.09-105.06,42.54-24.93,4.94-50.21,8.19-75.84,6.53-17.85-1.16-34.73-5.54-49.82-15.22-11.74-7.53-20.77-17.58-23.37-32a32.11,32.11,0,0,1,1.61-18.38c3.72-8.91,8.31-17.21,15.18-24.22,11.72-11.95,23.42-23.88,36.35-34.56,10.45-8.64,20.11-18.33,27.2-29.75,11.19-18,19.79-37.37,17.32-59.48-1.69-15.16-7.85-28.49-17.05-40.82-11.06-14.82-26.25-23.17-42.87-29.25-9.49-3.47-18.91-.44-27.65,4.17-1.55.82-2.11,2.22-2.32,4-1.75,15.06-5.22,29.63-13.05,42.83-.76,1.29-.07,1.79.48,2.54,6,8.28,11,17.2,16.75,25.67,8.35,12.35,7.6,20.24-3.84,32.66-9.35,10.15-22,14.78-34.73,18.87-10.1,3.23-20.49,5.25-30.85,7.36a29.57,29.57,0,0,1-9,.17,2.53,2.53,0,0,1-2.5-1.89c-.29-1.27.51-2,1.59-2.65,7.61-4.23,13.65-10.44,20.17-16a34.86,34.86,0,0,0,2.71-2.59c9.46-10.07,9.12-19.93-1.51-28.91-12.75-10.77-27.6-13.78-43.81-10.5a70.05,70.05,0,0,0-10.07,2.75c-15,5.47-21,15.88-16.13,31.33,3.68,11.66,9.66,21.61,21.48,26.82,1.24.54,2.37,1.39,1.73,2.82-.87,2-2.81,1.46-4.3,1-7.31-2-14.67-3.87-21.89-6.25-16.17-5.34-27.27-16.5-35.89-30.63-2.63-4.29-3-8.71-.53-13.13,6.77-12.34,15-23.56,26.12-32.36,1.57-1.24,1.86-2.18,1.64-4.2-1-9.56.64-19,3.36-28a136.5,136.5,0,0,1,14-32.1,82,82,0,0,1,10.88-14.24c1.6-1.64,1.7-2.7.41-4.69-8.07-12.43-13.8-26-13.51-40.88.52-26.85,13.4-58.2,49.82-72.78a180.57,180.57,0,0,1,66.31-12.65c12.35-.11,24.71.66,37-.76,16.89-1.94,33.32-5.58,48.79-12.88,6.63-3.12,12-7.94,17.47-12.69a21.38,21.38,0,0,0,2.35-29.57c-7.72-9.4-18.09-13-29.87-13.94-13.34-1.05-26,2.13-38.61,5.58-1.8.49-3.62.89-5.45,1.28a5.91,5.91,0,0,1-1.45,0Z" transform="translate(-83.27 -269.82)"/>
  <path class="cls-2" d="M350,706.08c6.31-2.56,11.59-6.79,17.22-10.48,4.28-2.81,8.9-5.67,14-.91,1.21,1.14,3,1.67,4.66,2.3,1,.4,2.21.78,3.13-.27s.52-2.41-.19-3.44a40.61,40.61,0,0,0-3-3.43c2.27-.78,4.39-1.49,6.5-2.25a280.62,280.62,0,0,0,72.09-38.8c7.13-5.25,14.46-10.23,21.57-15.5,10.92-8.08,23.66-11,36.69-12.45,7-.76,13.77,1.8,19.55,6.11,4.72,3.52,6.14,8.67,6,14.23a78.46,78.46,0,0,1-11.5,40.39c-19.18,31.2-47.67,51.17-80.4,65.68C426.32,760.59,395,769.55,362.12,773c-14.78,1.54-29.49,3.29-44.39,2.79-17.43-.57-34.21-3.78-49.33-12.86-11.3-6.79-20.35-15.73-23-29.39a25.51,25.51,0,0,1,.89-14c3.13-8.2,7.1-15.9,13.32-22.29,12.36-12.7,24.9-25.21,38.71-36.39,10.83-8.78,20.72-18.85,27.8-30.69,16.11-27,23.22-55.8,10.77-86.32-7.61-18.67-19.73-34-38.54-43-7.28-3.45-14.31-7.63-22.39-9.09-10.88-2-20.7,1.23-29.91,6.67-2.31,1.36-2.65,4.22-2.95,6.63-1.54,12.7-5.37,24.81-9.65,36.74-2.4,6.66-2.33,12.15,2,18,4.66,6.28,7.74,13.63,12.44,20a27.86,27.86,0,0,1,4.51,11.37,9.22,9.22,0,0,1-1.32,7.39c-9.7,14.66-24.23,21.87-40.38,26.39-9,2.52-18.19,4.19-27.3,6.22a13.34,13.34,0,0,1-2.11,0c5.07-3.67,9.21-7.4,13.41-11.07a53.47,53.47,0,0,0,10.35-12.24c3-4.89,2.92-9.76.58-14.94-5-11-14-17.21-24.66-21.6-15.51-6.41-30.85-4.42-45.82,1.69-14.17,5.79-19.83,20.39-14.74,36.7A61.2,61.2,0,0,0,125.2,621c1.91,3.48,4.49,6.5,7.48,10.55-8.76-2.18-16.56-4.22-23.09-9.09A78,78,0,0,1,90,601.08c-2.59-4.16-2.78-8-.34-12.24,5.26-9.13,11.89-17.24,18.73-25.17,2.59-3,4.77-6.39,8.12-8.72,1-.73,1.11-2.12,1.12-3.43.27-25.88,9.2-48.64,24.94-68.93.61-.78,1.29-1.52,1.94-2.28.33-.37.65-.76,1.21-1.42,4,4.33,8.17,8.13,13.29,10.71,1.46.74,3.13,2.38,4.69.58s.19-3.61-1-5c-3-3.35-6.11-6.59-9.25-9.79-1.44-1.46-1.67-2.64.22-3.83,5.88-3.69,9.38-9.46,13.41-14.86,12.84-17.24,28.5-31,49.26-38,.82-.28,1.62-.63,2.44-.92s1.63-.58,2.12,0c.77,1-.37,1.54-.89,2.11a69.28,69.28,0,0,0-15,26A89,89,0,0,0,200.74,472a35.52,35.52,0,0,0,2.62,13.45,7.58,7.58,0,0,0,3.73,4.5,3.81,3.81,0,0,0,4.23-.39c1.31-1.06,1.05-2.41.7-3.78-6.11-24,.83-44.42,16.93-62.54,8.49-9.56,18.76-13.41,31.38-13.24,15.87.21,31.79,0,47.14,4.43,30.58,8.86,54.19,27.48,73.6,52.45,21.66,27.86,33.26,59.41,34.3,94.22,1.19,39.53-8.64,76.66-31.64,109.36a110,110,0,0,1-27,27.33,35.79,35.79,0,0,0-7.67,6.49c-.44.79-1.24,1.28-1.64,2.07-.09.16-.57.51.16.32a6.17,6.17,0,0,1,.65-.2C348.88,706.4,349.52,706.56,350,706.08Z" transform="translate(-83.27 -269.82)"/>
  <path class="cls-3" d="M350,706.08l-1.5.75c-.91.45-1.65.58-1.57-.83l2.16-1.73C349,705.06,348.61,706,350,706.08Z" transform="translate(-83.27 -269.82)"/>
  <path class="cls-1" d="M200.77,523.07c-1.16,5.86-3.63,12.08-5.54,18.46-.78,2.59-1.36,5.28-2.85,7.61-2.26,3.53-6.1,5.24-9.12,4.1s-5.27-5.21-4.39-9a189.51,189.51,0,0,1,8-25,5.26,5.26,0,0,1,.8-1.26c2.4-3.33,6.31-5.18,8.85-4.21C198.82,514.59,200.83,518.7,200.77,523.07Z" transform="translate(-83.27 -269.82)"/>
  <path class="cls-1" d="M153.7,519.43c.2,7.54-2,14.69-3.75,21.89-1,4.06-4.63,7.27-7.08,6.62-3.68-1-5.47-4-5.75-7.48a48.61,48.61,0,0,1,5.73-27.25,7.1,7.1,0,0,1,4.37-3.32c3.75-1.14,6.1.4,6.45,4.31C153.83,515.93,153.7,517.69,153.7,519.43Z" transform="translate(-83.27 -269.82)"/>
  <path class="cls-4" d="M347,706c.25.79,1,.7,1.57.83l-3.82,1.83A3.64,3.64,0,0,1,347,706Z" transform="translate(-83.27 -269.82)"/>
  <path class="cls-1" d="M261.12,483.79c7.67,1.74,8.1,13.57,8.24,19.72.19,7.9-1.94,14.89-3.91,22.41a.94.94,0,0,0,1.71.72c4.57-8.36,5.43-19.48,4.18-28.79-.83-6.09-2.61-14.73-10-15.41-.77-.07-.93,1.18-.18,1.35Z" transform="translate(-83.27 -269.82)"/>
  <path class="cls-1" d="M289.69,488.06c5.32,12.1,7.62,24-.12,35.56-.69,1,.79,2,1.63,1.26,11-9.79,5.68-26.76.44-38-.62-1.33-2.53-.17-1.95,1.14Z" transform="translate(-83.27 -269.82)"/>
  <path class="cls-1" d="M314.05,495.4c3.37,6.45,4.82,12.21,3,19.36-1.32,5.23-4,9.89-5.92,14.91-.32.86.93,1.25,1.4.59A43.49,43.49,0,0,0,320,511.81c.86-6.55-1.12-11.72-4.84-17.05a.64.64,0,0,0-1.1.64Z" transform="translate(-83.27 -269.82)"/>
  <path class="cls-1" d="M341.71,508.74c1.15,10-1,19-4.81,28.16-.44,1.05,1.22,1.65,1.79.75,5.44-8.63,6.47-19.27,4.4-29.1-.16-.76-1.47-.61-1.38.19Z" transform="translate(-83.27 -269.82)"/>
  <path class="cls-1" d="M297.09,758.42a26.72,26.72,0,0,1,11.37,18,26,26,0,0,1-.7,10.85c-1.05,3.75-3.27,6.61-4.75,10.11-.31.72.4,1.83,1.22,1.23,6.4-4.68,8.21-15.26,7.16-22.64a29.64,29.64,0,0,0-12.88-20c-1.5-1-2.89,1.4-1.42,2.43Z" transform="translate(-83.27 -269.82)"/>
  <path class="cls-1" d="M332.19,759a33.83,33.83,0,0,1,13.07,17.61c2.56,8.34.82,15.54-1.43,23.63a1.21,1.21,0,0,0,2.2.93c9.31-15,1.08-35.39-12.53-44.42-1.41-.94-2.67,1.3-1.31,2.25Z" transform="translate(-83.27 -269.82)"/>
  <path class="cls-1" d="M369.45,760.29c8.38,1.94,15.61,7.72,18.21,16.11s-.28,15.93-4.8,22.92c-.71,1.1.84,2.16,1.74,1.35,15.57-13.92,4.28-39.55-14.45-42.9-1.63-.29-2.36,2.13-.7,2.52Z" transform="translate(-83.27 -269.82)"/>
  <path class="cls-1" d="M415.11,750.9a22.76,22.76,0,0,1,14,9.84c3.93,6.34,3.23,12.62,1.9,19.56-.23,1.21,1.42,2.07,2.08.88,7.53-13.47-3.58-29.77-17.3-32.62-1.51-.31-2.16,2-.64,2.34Z" transform="translate(-83.27 -269.82)"/>
  <path class="cls-1" d="M449.75,734.29c6.45.87,12.63,4,16.15,9.67,3.71,6,3.26,12.45,1.91,19a1,1,0,0,0,1.78.76c8.54-14.09-4.69-31.66-19.84-31.73-1.5,0-1.39,2.07,0,2.25Z" transform="translate(-83.27 -269.82)"/>
  <path class="cls-1" d="M480.77,724.57c6.34-.27,12.71,2.28,16.37,7.66,3.5,5.17,2.81,10.16,2.63,16a1.05,1.05,0,0,0,2,.53c3.24-5.82.91-14.13-3-19.08a20.91,20.91,0,0,0-17.93-7.6c-1.61.1-1.64,2.6,0,2.53Z" transform="translate(-83.27 -269.82)"/>
  <path class="cls-1" d="M511.86,703c12.34.95,19,10.52,20.3,22.06.09.73,1.26,1.06,1.42.19,2.34-13.23-9.22-23.92-21.72-24.81-1.65-.12-1.64,2.43,0,2.56Z" transform="translate(-83.27 -269.82)"/>
  <path class="cls-1" d="M264.67,761c-7.7,5.68-11.47,21.08-4.9,28.85.63.74,1.62-.09,1.48-.87-.88-5.07-2.51-9.28-1.45-14.55,1-4.75,3.43-8.26,6.2-12.09.56-.78-.56-1.91-1.33-1.34Z" transform="translate(-83.27 -269.82)"/>
  <path class="cls-1" d="M297.5,777c-4,3.39-7.77,12.2-4.53,17.1a.69.69,0,0,0,1.25-.16c.54-2.66-.1-5.35.56-8.07a23.75,23.75,0,0,1,3.91-8c.51-.75-.58-1.44-1.19-.91Z" transform="translate(-83.27 -269.82)"/>
  <path class="cls-1" d="M339.91,777.8c-3.26,4.18-6.78,11.76-4,17a.69.69,0,0,0,1.24-.16c.55-2.55.16-5.18.77-7.77a20.08,20.08,0,0,1,3.77-7.7c.77-1-1-2.37-1.77-1.36Z" transform="translate(-83.27 -269.82)"/>
  <path class="cls-1" d="M375.31,776.45c-2.24,3.08-4.55,6.33-4.43,10.32.08,2.5,1.28,5.92,4.09,6.34.55.08,1.14-.46.79-1-1.49-2.36-2.94-4-2.45-7,.45-2.76,2.22-5.31,3.76-7.58.74-1.1-1-2.06-1.76-1Z" transform="translate(-83.27 -269.82)"/>
  <path class="cls-1" d="M410.27,766.67c-2.1,4.47-3.64,11.05-1,15.64a.85.85,0,0,0,1.57-.42c0-2.17-.56-4.27-.49-6.45a19.8,19.8,0,0,1,1.83-7.68c.56-1.25-1.27-2.35-1.86-1.09Z" transform="translate(-83.27 -269.82)"/>
  <path class="cls-1" d="M281.07,729.69c4.11,2.38-.58,13.09-1.73,16.17-1.56,4.21-4,8.17-5.21,12.49a.82.82,0,0,0,1.35.79c3.25-3.46,16.29-31.84,5.95-30.81a.74.74,0,0,0-.36,1.36Z" transform="translate(-83.27 -269.82)"/>
  <path class="cls-1" d="M240.59,733.11c-7.54,4.28-11.94,16.19-7.89,24.15a1.13,1.13,0,0,0,2.09-.57c-.39-4-1-7.55.19-11.53,1.26-4.25,3.81-7.33,6.88-10.41a1.05,1.05,0,0,0-1.27-1.64Z" transform="translate(-83.27 -269.82)"/>
  <path class="cls-1" d="M300.75,693.31c-11-4.5-25.35,5.11-29.17,15.52a.92.92,0,0,0,1.52.88c6.34-7.74,15.75-18,27.1-14.4,1.3.41,1.75-1.51.55-2Z" transform="translate(-83.27 -269.82)"/>
  <path class="cls-1" d="M269.84,681.27c-9.31-3.74-24-1.71-29.52,7.66-.45.77.48,1.79,1.27,1.27,4.11-2.76,7.47-5.6,12.39-7a26.87,26.87,0,0,1,15.18.51c1.62.49,2.18-1.89.68-2.49Z" transform="translate(-83.27 -269.82)"/>
  <path class="cls-1" d="M345.28,663.23a.05.05,0,0,0,0-.1.05.05,0,1,0,0,.1Z" transform="translate(-83.27 -269.82)"/>
  <path class="cls-1" d="M333.84,664.7c2.64-5.94.07-13.33-6.73-14.86-7.91-1.79-15.83,5-18.32,12.12-.25.7.72,1.2,1.21.71,4-3.95,6.54-9.29,12.63-10.31A8.56,8.56,0,0,1,332.18,664c-.36,1,1.24,1.64,1.66.7Z" transform="translate(-83.27 -269.82)"/>
  <path class="cls-1" d="M304.1,650.28c-8.38-10.36-23.19-6.15-30.76,2.93a.71.71,0,0,0,.86,1.12c4.39-2.24,8.09-5.83,13-7,5.83-1.41,11.05.53,15.34,4.53a1.1,1.1,0,0,0,1.56-1.56Z" transform="translate(-83.27 -269.82)"/>
  <path class="cls-1" d="M353,617.29c2.1-3.11-1.32-6.58-4.43-7-4.35-.59-9,3.5-11.36,6.76-.35.47.29.88.7.71,2.24-1,4-2.69,6.17-3.85,3.05-1.65,7.49-1.45,7.46,3a.79.79,0,0,0,1.46.39Z" transform="translate(-83.27 -269.82)"/>
  <path class="cls-1" d="M334.2,609.83c-3.33-3.77-7.85-7.46-13.15-5.41-5,1.93-7.51,7.66-8.08,12.63-.1.92,1.33,1.25,1.74.47,1.81-3.54,2.62-8,6.34-10.13,4.48-2.62,8.55,1,11.43,4.15,1.07,1.15,2.74-.55,1.72-1.71Z" transform="translate(-83.27 -269.82)"/>
  <path class="cls-1" d="M361.05,573.91c-3.33-4.38-6.69-11.07-13.23-9.7-5.53,1.16-9.47,7.14-10,12.5-.1,1,1.2,1.08,1.65.45,2.64-3.61,3.4-8.89,8.46-10.23s8.7,5,11.46,8.26c.76.9,2.38-.32,1.65-1.28Z" transform="translate(-83.27 -269.82)"/>
  <path class="cls-1" d="M338,569.1c-3.52-10.76-25.39,2.27-21.84,12.52a.93.93,0,0,0,1.81-.25,11.84,11.84,0,0,1,5.82-10.15c3.66-2.39,9-5.29,12.56-1.16a1,1,0,0,0,1.65-1Z" transform="translate(-83.27 -269.82)"/>
  <path class="cls-1" d="M326.43,532c-6.36-4.58-11,12.09-8.56,16.11a.85.85,0,0,0,1.53-.2c.7-2.33.24-4.89.85-7.31.36-1.38,2.68-8.41,5.16-6.86,1.13.69,2.06-1,1-1.74Z" transform="translate(-83.27 -269.82)"/>
  <path class="cls-1" d="M304.53,508.32A30.62,30.62,0,0,0,302.6,524c.1.68,1.1.46,1.14-.15a91.85,91.85,0,0,1,1.87-15.24.56.56,0,0,0-1.08-.3Z" transform="translate(-83.27 -269.82)"/>
  <path class="cls-1" d="M280.92,494.85c-1.6,5.71-2.17,12.57.72,17.95.26.49,1.16.3,1.09-.29-.7-6-1.6-11.15,0-17.15a1,1,0,0,0-1.84-.51Z" transform="translate(-83.27 -269.82)"/>
  <path class="cls-1" d="M245.76,505.91c-2.2,6.74-1,16.51,3.23,22.26a.67.67,0,0,0,1.22-.51c-.86-3.39-2.27-6.56-2.91-10-.72-3.87-.56-7.73-.75-11.64a.4.4,0,0,0-.79-.1Z" transform="translate(-83.27 -269.82)"/>
</svg>