<svg id="Layer_1" data-name="Layer 1" 
  xmlns="http://www.w3.org/2000/svg" viewBox="0 0 137.18 137.46">
  <defs>
    <style>.cls-1{fill:#62b5e5;}.cls-2{fill:#27499f;}.cls-3{fill:#11193e;}</style>
  </defs>
  <title>Icon_Game</title>
  <path class="cls-1" d="M389.49,567.8c-.4,37.64-31.84,68.71-69,68.21-37.76-.52-68.62-31.62-68.15-69.09.48-38.06,30.2-68.15,68.78-68.37C359.08,498.34,389.9,530.1,389.49,567.8Z" transform="translate(-252.32 -498.55)"/>
  <path class="cls-2" d="M379.44,567.73c-.35,32.15-27.21,58.7-59,58.27-32.26-.44-58.63-27-58.23-59,.42-32.51,25.8-58.23,58.77-58.41C353.46,508.38,379.78,535.52,379.44,567.73Z" transform="translate(-252.32 -498.55)"/>
  <path class="cls-3" d="M272.47,567.21A48.8,48.8,0,0,1,321,518.76c26.37,0,48.5,22.33,48.33,48.74s-22.1,48.19-48.41,48.21C294.42,615.73,272.42,593.71,272.47,567.21Z" transform="translate(-252.32 -498.55)"/>
</svg>